<?xml version="1.0" encoding="UTF-8" standalone="no"?>
<!DOCTYPE svg PUBLIC "-//W3C//DTD SVG 1.1//EN"
 "http://www.w3.org/Graphics/SVG/1.1/DTD/svg11.dtd">
<!-- Generated by graphviz version 2.43.0 (0)
 -->
<!-- Title: GVmap Pages: 1 -->
<svg width="2029pt" height="536pt"
 viewBox="0.00 0.00 2028.50 536.00" xmlns="http://www.w3.org/2000/svg" xmlns:xlink="http://www.w3.org/1999/xlink">
<g id="graph0" class="graph" transform="scale(1 1) rotate(0) translate(4 532)">
<title>GVmap</title>
<polygon fill="white" stroke="transparent" points="-4,4 -4,-532 2024.5,-532 2024.5,4 -4,4"/>
<text text-anchor="middle" x="1010.25" y="-7.8" font-family="Times,serif" font-size="14.00">DemoDM data model</text>
<g id="clust1" class="cluster">
<title>cluster_packages</title>
<polygon fill="#8dd3c7" stroke="black" points="8,-406 8,-520 236,-520 236,-406 8,-406"/>
<text text-anchor="middle" x="122" y="-504.8" font-family="Times,serif" font-size="14.00">Model</text>
</g>
<g id="clust2" class="cluster">
<title>cluster_catalog</title>
<polygon fill="#ffffb3" stroke="black" points="92,-414 92,-489 228,-489 228,-414 92,-414"/>
<text text-anchor="middle" x="160" y="-473.8" font-family="Times,serif" font-size="14.00">Package: catalog</text>
</g>
<!-- catalog -->
<g id="node1" class="node">
<title>catalog</title>
<g id="a_node1"><a xlink:href="../DemoDM/catalog" xlink:title="catalog">
<polygon fill="#ffffb3" stroke="black" points="84,-458 28,-458 28,-462 16,-462 16,-422 84,-422 84,-458"/>
<polyline fill="none" stroke="black" points="16,-458 28,-458 "/>
<text text-anchor="middle" x="50" y="-436.3" font-family="Times,serif" font-size="14.00">catalog</text>
</a>
</g>
</g>
<!-- catalog.inner -->
<g id="node2" class="node">
<title>catalog.inner</title>
<g id="a_node2"><a xlink:href="../DemoDM/catalog.inner" xlink:title="inner">
<polygon fill="#bebada" stroke="black" points="188,-458 146,-458 146,-462 134,-462 134,-422 188,-422 188,-458"/>
<polyline fill="none" stroke="black" points="134,-458 146,-458 "/>
<text text-anchor="middle" x="161" y="-436.3" font-family="Times,serif" font-size="14.00">inner</text>
</a>
</g>
</g>
<!-- DemoDM:Point -->
<g id="node3" class="node">
<title>DemoDM:Point</title>
<g id="a_node3"><a xlink:href="../DemoDM/Point" xlink:title="{&amp;lt;&amp;lt;datatype&amp;gt;&amp;gt;\nPoint|+alpha : ivoa:real\l+delta : ivoa:real\l}">
<polygon fill="#8dd3c7" stroke="black" points="244,-414 244,-466 330,-466 330,-414 244,-414"/>
<text text-anchor="middle" x="287" y="-455.6" font-family="Times,serif" font-size="8.00">&lt;&lt;datatype&gt;&gt;</text>
<text text-anchor="middle" x="287" y="-446.6" font-family="Times,serif" font-size="8.00">Point</text>
<polyline fill="none" stroke="black" points="244,-440 330,-440 "/>
<text text-anchor="start" x="252" y="-429.6" font-family="Times,serif" font-size="8.00">+alpha : ivoa:real</text>
<text text-anchor="start" x="252" y="-420.6" font-family="Times,serif" font-size="8.00">+delta : ivoa:real</text>
</a>
</g>
</g>
<!-- DemoDM:Shape -->
<g id="node4" class="node">
<title>DemoDM:Shape</title>
<g id="a_node4"><a xlink:href="../DemoDM/Shape" xlink:title="{&amp;lt;&amp;lt;datatype&amp;gt;&amp;gt;\nShape}">
<polygon fill="#8dd3c7" stroke="black" points="436,-308.5 436,-344.5 514,-344.5 514,-308.5 436,-308.5"/>
<text text-anchor="middle" x="475" y="-329.1" font-family="Times,serif" font-size="8.00">&lt;&lt;datatype&gt;&gt;</text>
<text text-anchor="middle" x="475" y="-320.1" font-family="Times,serif" font-size="8.00">Shape</text>
</a>
</g>
</g>
<!-- DemoDM:Circle -->
<g id="node5" class="node">
<title>DemoDM:Circle</title>
<g id="a_node5"><a xlink:href="../DemoDM/Circle" xlink:title="{&amp;lt;&amp;lt;datatype&amp;gt;&amp;gt;\nCircle|+center : DemoDM:Point\l+radius : ivoa:real\l}">
<polygon fill="#8dd3c7" stroke="black" points="348,-414 348,-466 466,-466 466,-414 348,-414"/>
<text text-anchor="middle" x="407" y="-455.6" font-family="Times,serif" font-size="8.00">&lt;&lt;datatype&gt;&gt;</text>
<text text-anchor="middle" x="407" y="-446.6" font-family="Times,serif" font-size="8.00">Circle</text>
<polyline fill="none" stroke="black" points="348,-440 466,-440 "/>
<text text-anchor="start" x="356" y="-429.6" font-family="Times,serif" font-size="8.00">+center : DemoDM:Point</text>
<text text-anchor="start" x="356" y="-420.6" font-family="Times,serif" font-size="8.00">+radius : ivoa:real</text>
</a>
</g>
</g>
<!-- DemoDM:Circle&#45;&gt;DemoDM:Shape -->
<g id="edge1" class="edge">
<title>DemoDM:Circle&#45;&gt;DemoDM:Shape</title>
<path fill="none" stroke="red" d="M422.26,-413.98C433.2,-396.04 447.9,-371.94 459,-353.74"/>
<polygon fill="none" stroke="red" points="462.22,-355.18 464.44,-344.82 456.24,-351.53 462.22,-355.18"/>
</g>
<!-- DemoDM:MultiShape -->
<g id="node6" class="node">
<title>DemoDM:MultiShape</title>
<g id="a_node6"><a xlink:href="../DemoDM/MultiShape" xlink:title="{&amp;lt;&amp;lt;datatype&amp;gt;&amp;gt;\nMultiShape|+shapes : DemoDM:Shape\l}">
<polygon fill="#8dd3c7" stroke="black" points="618,-418.5 618,-461.5 742,-461.5 742,-418.5 618,-418.5"/>
<text text-anchor="middle" x="680" y="-451.1" font-family="Times,serif" font-size="8.00">&lt;&lt;datatype&gt;&gt;</text>
<text text-anchor="middle" x="680" y="-442.1" font-family="Times,serif" font-size="8.00">MultiShape</text>
<polyline fill="none" stroke="black" points="618,-435.5 742,-435.5 "/>
<text text-anchor="start" x="626" y="-425.1" font-family="Times,serif" font-size="8.00">+shapes : DemoDM:Shape</text>
</a>
</g>
</g>
<!-- DemoDM:Polygon -->
<g id="node7" class="node">
<title>DemoDM:Polygon</title>
<g id="a_node7"><a xlink:href="../DemoDM/Polygon" xlink:title="{&amp;lt;&amp;lt;datatype&amp;gt;&amp;gt;\nPolygon|+points : DemoDM:Point\l}">
<polygon fill="#8dd3c7" stroke="black" points="484,-418.5 484,-461.5 600,-461.5 600,-418.5 484,-418.5"/>
<text text-anchor="middle" x="542" y="-451.1" font-family="Times,serif" font-size="8.00">&lt;&lt;datatype&gt;&gt;</text>
<text text-anchor="middle" x="542" y="-442.1" font-family="Times,serif" font-size="8.00">Polygon</text>
<polyline fill="none" stroke="black" points="484,-435.5 600,-435.5 "/>
<text text-anchor="start" x="492" y="-425.1" font-family="Times,serif" font-size="8.00">+points : DemoDM:Point</text>
</a>
</g>
</g>
<!-- DemoDM:Polygon&#45;&gt;DemoDM:Shape -->
<g id="edge2" class="edge">
<title>DemoDM:Polygon&#45;&gt;DemoDM:Shape</title>
<path fill="none" stroke="red" d="M529.55,-418.29C518.58,-400.02 502.53,-373.31 490.68,-353.59"/>
<polygon fill="none" stroke="red" points="493.55,-351.58 485.4,-344.81 487.55,-355.18 493.55,-351.58"/>
</g>
<!-- DemoDM:PhotometricSystem -->
<g id="node8" class="node">
<title>DemoDM:PhotometricSystem</title>
<g id="a_node8"><a xlink:href="../DemoDM/PhotometricSystem" xlink:title="{PhotometricSystem|+description : ivoa:string\l+detectorType : ivoa:integer\l}">
<polygon fill="#8dd3c7" stroke="black" points="674.5,-191.5 674.5,-234.5 805.5,-234.5 805.5,-191.5 674.5,-191.5"/>
<text text-anchor="middle" x="740" y="-224.1" font-family="Times,serif" font-size="8.00">PhotometricSystem</text>
<polyline fill="none" stroke="black" points="674.5,-217.5 805.5,-217.5 "/>
<text text-anchor="start" x="682.5" y="-207.1" font-family="Times,serif" font-size="8.00">+description : ivoa:string</text>
<text text-anchor="start" x="682.5" y="-198.1" font-family="Times,serif" font-size="8.00">+detectorType : ivoa:integer</text>
</a>
</g>
</g>
<!-- DemoDM:PhotometryFilter -->
<g id="node9" class="node">
<title>DemoDM:PhotometryFilter</title>
<g id="a_node9"><a xlink:href="../DemoDM/PhotometryFilter" xlink:title="{PhotometryFilter|+name : ivoa:string\l+description : ivoa:string\l+bandName : ivoa:string\l+dataValidityFrom : ivoa:datetime\l+dataValidityTo : ivoa:datetime\l+spectralLocation : ivoa:RealQuantity\l}">
<polygon fill="#8dd3c7" stroke="black" points="711.5,-55.5 711.5,-134.5 878.5,-134.5 878.5,-55.5 711.5,-55.5"/>
<text text-anchor="middle" x="795" y="-124.1" font-family="Times,serif" font-size="8.00">PhotometryFilter</text>
<polyline fill="none" stroke="black" points="711.5,-117.5 878.5,-117.5 "/>
<text text-anchor="start" x="719.5" y="-107.1" font-family="Times,serif" font-size="8.00">+name : ivoa:string</text>
<text text-anchor="start" x="719.5" y="-98.1" font-family="Times,serif" font-size="8.00">+description : ivoa:string</text>
<text text-anchor="start" x="719.5" y="-89.1" font-family="Times,serif" font-size="8.00">+bandName : ivoa:string</text>
<text text-anchor="start" x="719.5" y="-80.1" font-family="Times,serif" font-size="8.00">+dataValidityFrom : ivoa:datetime</text>
<text text-anchor="start" x="719.5" y="-71.1" font-family="Times,serif" font-size="8.00">+dataValidityTo : ivoa:datetime</text>
<text text-anchor="start" x="719.5" y="-62.1" font-family="Times,serif" font-size="8.00">+spectralLocation : ivoa:RealQuantity</text>
</a>
</g>
</g>
<!-- DemoDM:PhotometricSystem&#45;&gt;DemoDM:PhotometryFilter -->
<g id="edge10" class="edge">
<title>DemoDM:PhotometricSystem&#45;&gt;DemoDM:PhotometryFilter</title>
<path fill="none" stroke="blue" d="M755.08,-180.2C760.37,-169.03 766.45,-156.22 772.23,-144.02"/>
<polygon fill="blue" stroke="blue" points="754.97,-180.42 756.02,-187.55 749.83,-191.26 748.79,-184.13 754.97,-180.42"/>
<polygon fill="blue" stroke="blue" points="776.58,-134.85 776.36,-145.81 774.44,-139.37 772.3,-143.88 772.3,-143.88 772.3,-143.88 774.44,-139.37 768.23,-141.96 776.58,-134.85 776.58,-134.85"/>
<text text-anchor="middle" x="811.5" y="-156" font-family="Times,serif" font-size="10.00">photometryFilter</text>
<text text-anchor="middle" x="785.58" y="-137.85" font-family="Times,serif" font-size="10.00">1..*</text>
</g>
<!-- DemoDM:catalog.LuminosityType -->
<g id="node10" class="node">
<title>DemoDM:catalog.LuminosityType</title>
<g id="a_node10"><a xlink:href="../DemoDM/catalog.LuminosityType" xlink:title="{&amp;lt;&amp;lt;enumeration&amp;gt;&amp;gt;\ncatalog/LuminosityType|+magnitude\l+flux\l}">
<polygon fill="#ffffb3" stroke="black" points="1260.5,-414 1260.5,-466 1371.5,-466 1371.5,-414 1260.5,-414"/>
<text text-anchor="middle" x="1316" y="-455.6" font-family="Times,serif" font-size="8.00">&lt;&lt;enumeration&gt;&gt;</text>
<text text-anchor="middle" x="1316" y="-446.6" font-family="Times,serif" font-size="8.00">catalog/LuminosityType</text>
<polyline fill="none" stroke="black" points="1260.5,-440 1371.5,-440 "/>
<text text-anchor="start" x="1268.5" y="-429.6" font-family="Times,serif" font-size="8.00">+magnitude</text>
<text text-anchor="start" x="1268.5" y="-420.6" font-family="Times,serif" font-size="8.00">+flux</text>
</a>
</g>
</g>
<!-- DemoDM:catalog.SourceClassification -->
<g id="node11" class="node">
<title>DemoDM:catalog.SourceClassification</title>
<g id="a_node11"><a xlink:href="../DemoDM/catalog.SourceClassification" xlink:title="{&amp;lt;&amp;lt;enumeration&amp;gt;&amp;gt;\ncatalog/SourceClassification|+target\l+calibrator\l}">
<polygon fill="#ffffb3" stroke="black" points="1390,-414 1390,-466 1518,-466 1518,-414 1390,-414"/>
<text text-anchor="middle" x="1454" y="-455.6" font-family="Times,serif" font-size="8.00">&lt;&lt;enumeration&gt;&gt;</text>
<text text-anchor="middle" x="1454" y="-446.6" font-family="Times,serif" font-size="8.00">catalog/SourceClassification</text>
<polyline fill="none" stroke="black" points="1390,-440 1518,-440 "/>
<text text-anchor="start" x="1398" y="-429.6" font-family="Times,serif" font-size="8.00">+target</text>
<text text-anchor="start" x="1398" y="-420.6" font-family="Times,serif" font-size="8.00">+calibrator</text>
</a>
</g>
</g>
<!-- DemoDM:catalog.AlignedEllipse -->
<g id="node12" class="node">
<title>DemoDM:catalog.AlignedEllipse</title>
<g id="a_node12"><a xlink:href="../DemoDM/catalog.AlignedEllipse" xlink:title="{&amp;lt;&amp;lt;datatype&amp;gt;&amp;gt;\ncatalog/AlignedEllipse|+longError : ivoa:real\l+latError : ivoa:real\l}">
<polygon fill="#ffffb3" stroke="black" points="1536.5,-414 1536.5,-466 1641.5,-466 1641.5,-414 1536.5,-414"/>
<text text-anchor="middle" x="1589" y="-455.6" font-family="Times,serif" font-size="8.00">&lt;&lt;datatype&gt;&gt;</text>
<text text-anchor="middle" x="1589" y="-446.6" font-family="Times,serif" font-size="8.00">catalog/AlignedEllipse</text>
<polyline fill="none" stroke="black" points="1536.5,-440 1641.5,-440 "/>
<text text-anchor="start" x="1544.5" y="-429.6" font-family="Times,serif" font-size="8.00">+longError : ivoa:real</text>
<text text-anchor="start" x="1544.5" y="-420.6" font-family="Times,serif" font-size="8.00">+latError : ivoa:real</text>
</a>
</g>
</g>
<!-- DemoDM:catalog.SkyError -->
<g id="node16" class="node">
<title>DemoDM:catalog.SkyError</title>
<g id="a_node16"><a xlink:href="../DemoDM/catalog.SkyError" xlink:title="{&amp;lt;&amp;lt;datatype&amp;gt;&amp;gt;\ncatalog/SkyError}">
<polygon fill="#ffffb3" stroke="black" points="1664,-308.5 1664,-344.5 1748,-344.5 1748,-308.5 1664,-308.5"/>
<text text-anchor="middle" x="1706" y="-329.1" font-family="Times,serif" font-size="8.00">&lt;&lt;datatype&gt;&gt;</text>
<text text-anchor="middle" x="1706" y="-320.1" font-family="Times,serif" font-size="8.00">catalog/SkyError</text>
</a>
</g>
</g>
<!-- DemoDM:catalog.AlignedEllipse&#45;&gt;DemoDM:catalog.SkyError -->
<g id="edge3" class="edge">
<title>DemoDM:catalog.AlignedEllipse&#45;&gt;DemoDM:catalog.SkyError</title>
<path fill="none" stroke="red" d="M1615.26,-413.98C1634.77,-395.39 1661.23,-370.16 1680.55,-351.76"/>
<polygon fill="none" stroke="red" points="1683,-354.25 1687.83,-344.82 1678.17,-349.18 1683,-354.25"/>
</g>
<!-- DemoDM:catalog.CircleError -->
<g id="node13" class="node">
<title>DemoDM:catalog.CircleError</title>
<g id="a_node13"><a xlink:href="../DemoDM/catalog.CircleError" xlink:title="{&amp;lt;&amp;lt;datatype&amp;gt;&amp;gt;\ncatalog/CircleError|+radius : ivoa:real\l}">
<polygon fill="#ffffb3" stroke="black" points="1659.5,-418.5 1659.5,-461.5 1752.5,-461.5 1752.5,-418.5 1659.5,-418.5"/>
<text text-anchor="middle" x="1706" y="-451.1" font-family="Times,serif" font-size="8.00">&lt;&lt;datatype&gt;&gt;</text>
<text text-anchor="middle" x="1706" y="-442.1" font-family="Times,serif" font-size="8.00">catalog/CircleError</text>
<polyline fill="none" stroke="black" points="1659.5,-435.5 1752.5,-435.5 "/>
<text text-anchor="start" x="1667.5" y="-425.1" font-family="Times,serif" font-size="8.00">+radius : ivoa:real</text>
</a>
</g>
</g>
<!-- DemoDM:catalog.CircleError&#45;&gt;DemoDM:catalog.SkyError -->
<g id="edge4" class="edge">
<title>DemoDM:catalog.CircleError&#45;&gt;DemoDM:catalog.SkyError</title>
<path fill="none" stroke="red" d="M1706,-418.29C1706,-400.43 1706,-374.52 1706,-354.94"/>
<polygon fill="none" stroke="red" points="1709.5,-354.81 1706,-344.81 1702.5,-354.81 1709.5,-354.81"/>
</g>
<!-- DemoDM:catalog.GenericEllipse -->
<g id="node14" class="node">
<title>DemoDM:catalog.GenericEllipse</title>
<g id="a_node14"><a xlink:href="../DemoDM/catalog.GenericEllipse" xlink:title="{&amp;lt;&amp;lt;datatype&amp;gt;&amp;gt;\ncatalog/GenericEllipse|+major : ivoa:real\l+minor : ivoa:real\l+pa : ivoa:real\l}">
<polygon fill="#ffffb3" stroke="black" points="1771,-409.5 1771,-470.5 1877,-470.5 1877,-409.5 1771,-409.5"/>
<text text-anchor="middle" x="1824" y="-460.1" font-family="Times,serif" font-size="8.00">&lt;&lt;datatype&gt;&gt;</text>
<text text-anchor="middle" x="1824" y="-451.1" font-family="Times,serif" font-size="8.00">catalog/GenericEllipse</text>
<polyline fill="none" stroke="black" points="1771,-444.5 1877,-444.5 "/>
<text text-anchor="start" x="1779" y="-434.1" font-family="Times,serif" font-size="8.00">+major : ivoa:real</text>
<text text-anchor="start" x="1779" y="-425.1" font-family="Times,serif" font-size="8.00">+minor : ivoa:real</text>
<text text-anchor="start" x="1779" y="-416.1" font-family="Times,serif" font-size="8.00">+pa : ivoa:real</text>
</a>
</g>
</g>
<!-- DemoDM:catalog.GenericEllipse&#45;&gt;DemoDM:catalog.SkyError -->
<g id="edge5" class="edge">
<title>DemoDM:catalog.GenericEllipse&#45;&gt;DemoDM:catalog.SkyError</title>
<path fill="none" stroke="red" d="M1792.69,-409.41C1773.57,-391.35 1749.44,-368.54 1731.49,-351.59"/>
<polygon fill="none" stroke="red" points="1733.88,-349.03 1724.21,-344.71 1729.08,-354.12 1733.88,-349.03"/>
</g>
<!-- DemoDM:catalog.SkyCoordinate -->
<g id="node15" class="node">
<title>DemoDM:catalog.SkyCoordinate</title>
<g id="a_node15"><a xlink:href="../DemoDM/catalog.SkyCoordinate" xlink:title="{&amp;lt;&amp;lt;datatype&amp;gt;&amp;gt;\ncatalog/SkyCoordinate|+coord : DemoDM:Point\l}">
<polygon fill="#ffffb3" stroke="black" points="1895.5,-418.5 1895.5,-461.5 2010.5,-461.5 2010.5,-418.5 1895.5,-418.5"/>
<text text-anchor="middle" x="1953" y="-451.1" font-family="Times,serif" font-size="8.00">&lt;&lt;datatype&gt;&gt;</text>
<text text-anchor="middle" x="1953" y="-442.1" font-family="Times,serif" font-size="8.00">catalog/SkyCoordinate</text>
<polyline fill="none" stroke="black" points="1895.5,-435.5 2010.5,-435.5 "/>
<text text-anchor="start" x="1903.5" y="-425.1" font-family="Times,serif" font-size="8.00">+coord : DemoDM:Point</text>
</a>
</g>
</g>
<!-- DemoDM:catalog.SkyCoordinateFrame -->
<g id="node21" class="node">
<title>DemoDM:catalog.SkyCoordinateFrame</title>
<g id="a_node21"><a xlink:href="../DemoDM/catalog.SkyCoordinateFrame" xlink:title="{catalog/SkyCoordinateFrame|+name : ivoa:string\l+documentURI : ivoa:anyURI\l+equinox : ivoa:string\l+system : ivoa:string\l}">
<polygon fill="#ffffb3" stroke="black" points="1885.5,-296 1885.5,-357 2020.5,-357 2020.5,-296 1885.5,-296"/>
<text text-anchor="middle" x="1953" y="-346.6" font-family="Times,serif" font-size="8.00">catalog/SkyCoordinateFrame</text>
<polyline fill="none" stroke="black" points="1885.5,-340 2020.5,-340 "/>
<text text-anchor="start" x="1893.5" y="-329.6" font-family="Times,serif" font-size="8.00">+name : ivoa:string</text>
<text text-anchor="start" x="1893.5" y="-320.6" font-family="Times,serif" font-size="8.00">+documentURI : ivoa:anyURI</text>
<text text-anchor="start" x="1893.5" y="-311.6" font-family="Times,serif" font-size="8.00">+equinox : ivoa:string</text>
<text text-anchor="start" x="1893.5" y="-302.6" font-family="Times,serif" font-size="8.00">+system : ivoa:string</text>
</a>
</g>
</g>
<!-- DemoDM:catalog.SkyCoordinate&#45;&gt;DemoDM:catalog.SkyCoordinateFrame -->
<g id="edge15" class="edge">
<title>DemoDM:catalog.SkyCoordinate&#45;&gt;DemoDM:catalog.SkyCoordinateFrame</title>
<path fill="none" stroke="green" d="M1953,-418.29C1953,-404.1 1953,-384.83 1953,-367.69"/>
<polygon fill="green" stroke="green" points="1953,-357.35 1957.5,-367.35 1953,-362.35 1953,-367.35 1953,-367.35 1953,-367.35 1953,-362.35 1948.5,-367.35 1953,-357.35 1953,-357.35"/>
<text text-anchor="middle" x="1968.5" y="-383" font-family="Times,serif" font-size="10.00">frame</text>
<text text-anchor="middle" x="1949.5" y="-360.35" font-family="Times,serif" font-size="10.00">1</text>
</g>
<!-- DemoDM:catalog.AbstractSource -->
<g id="node17" class="node">
<title>DemoDM:catalog.AbstractSource</title>
<g id="a_node17"><a xlink:href="../DemoDM/catalog.AbstractSource" xlink:title="{catalog/AbstractSource|+name : ivoa:string\l+description : ivoa:string\l+position : DemoDM:catalog.SkyCoordinate\l+positionError : DemoDM:catalog.SkyError\l+classification : DemoDM:catalog.SourceClassification\l}">
<polygon fill="#ffffb3" stroke="black" points="815.5,-291.5 815.5,-361.5 1048.5,-361.5 1048.5,-291.5 815.5,-291.5"/>
<text text-anchor="middle" x="932" y="-351.1" font-family="Times,serif" font-size="8.00">catalog/AbstractSource</text>
<polyline fill="none" stroke="black" points="815.5,-344.5 1048.5,-344.5 "/>
<text text-anchor="start" x="823.5" y="-334.1" font-family="Times,serif" font-size="8.00">+name : ivoa:string</text>
<text text-anchor="start" x="823.5" y="-325.1" font-family="Times,serif" font-size="8.00">+description : ivoa:string</text>
<text text-anchor="start" x="823.5" y="-316.1" font-family="Times,serif" font-size="8.00">+position : DemoDM:catalog.SkyCoordinate</text>
<text text-anchor="start" x="823.5" y="-307.1" font-family="Times,serif" font-size="8.00">+positionError : DemoDM:catalog.SkyError</text>
<text text-anchor="start" x="823.5" y="-298.1" font-family="Times,serif" font-size="8.00">+classification : DemoDM:catalog.SourceClassification</text>
</a>
</g>
</g>
<!-- DemoDM:catalog.AstroObject -->
<g id="node18" class="node">
<title>DemoDM:catalog.AstroObject</title>
<g id="a_node18"><a xlink:href="../DemoDM/catalog.AstroObject" xlink:title="{catalog/AstroObject|+objectType : ivoa:string\l}">
<polygon fill="#ffffb3" stroke="black" points="824,-195 824,-231 940,-231 940,-195 824,-195"/>
<text text-anchor="middle" x="882" y="-220.1" font-family="Times,serif" font-size="8.00">catalog/AstroObject</text>
<polyline fill="none" stroke="black" points="824,-213 940,-213 "/>
<text text-anchor="start" x="832" y="-202.1" font-family="Times,serif" font-size="8.00">+objectType : ivoa:string</text>
</a>
</g>
</g>
<!-- DemoDM:catalog.AbstractSource&#45;&gt;DemoDM:catalog.AstroObject -->
<g id="edge6" class="edge">
<title>DemoDM:catalog.AbstractSource&#45;&gt;DemoDM:catalog.AstroObject</title>
<path fill="none" stroke="red" d="M916.73,-291.44C909.38,-275.05 900.7,-255.69 893.85,-240.44"/>
<polygon fill="none" stroke="red" points="896.94,-238.76 889.66,-231.07 890.55,-241.63 896.94,-238.76"/>
</g>
<!-- DemoDM:catalog.LuminosityMeasurement -->
<g id="node19" class="node">
<title>DemoDM:catalog.LuminosityMeasurement</title>
<g id="a_node19"><a xlink:href="../DemoDM/catalog.LuminosityMeasurement" xlink:title="{catalog/LuminosityMeasurement|+value : ivoa:RealQuantity\l+error : ivoa:RealQuantity\l+description : ivoa:string\l+type : DemoDM:catalog.LuminosityType\l}">
<polygon fill="#ffffb3" stroke="black" points="958.5,-182.5 958.5,-243.5 1141.5,-243.5 1141.5,-182.5 958.5,-182.5"/>
<text text-anchor="middle" x="1050" y="-233.1" font-family="Times,serif" font-size="8.00">catalog/LuminosityMeasurement</text>
<polyline fill="none" stroke="black" points="958.5,-226.5 1141.5,-226.5 "/>
<text text-anchor="start" x="966.5" y="-216.1" font-family="Times,serif" font-size="8.00">+value : ivoa:RealQuantity</text>
<text text-anchor="start" x="966.5" y="-207.1" font-family="Times,serif" font-size="8.00">+error : ivoa:RealQuantity</text>
<text text-anchor="start" x="966.5" y="-198.1" font-family="Times,serif" font-size="8.00">+description : ivoa:string</text>
<text text-anchor="start" x="966.5" y="-189.1" font-family="Times,serif" font-size="8.00">+type : DemoDM:catalog.LuminosityType</text>
</a>
</g>
</g>
<!-- DemoDM:catalog.AbstractSource&#45;&gt;DemoDM:catalog.LuminosityMeasurement -->
<g id="edge11" class="edge">
<title>DemoDM:catalog.AbstractSource&#45;&gt;DemoDM:catalog.LuminosityMeasurement</title>
<path fill="none" stroke="blue" d="M976.97,-283.01C988.24,-272.36 1000.24,-261.02 1011.18,-250.68"/>
<polygon fill="blue" stroke="blue" points="976.77,-283.2 975.15,-290.23 968.05,-291.44 969.66,-284.41 976.77,-283.2"/>
<polygon fill="blue" stroke="blue" points="1018.57,-243.7 1014.39,-253.84 1014.93,-247.14 1011.3,-250.57 1011.3,-250.57 1011.3,-250.57 1014.93,-247.14 1008.21,-247.3 1018.57,-243.7 1018.57,-243.7"/>
<text text-anchor="middle" x="1025" y="-265" font-family="Times,serif" font-size="10.00">luminosity</text>
<text text-anchor="middle" x="1009.57" y="-246.7" font-family="Times,serif" font-size="10.00">0..*</text>
</g>
<!-- DemoDM:catalog.LuminosityMeasurement&#45;&gt;DemoDM:PhotometryFilter -->
<g id="edge16" class="edge">
<title>DemoDM:catalog.LuminosityMeasurement&#45;&gt;DemoDM:PhotometryFilter</title>
<path fill="none" stroke="green" d="M984.99,-182.43C955.58,-169.05 920.27,-152.99 888.12,-138.36"/>
<polygon fill="green" stroke="green" points="878.7,-134.07 889.67,-134.12 883.25,-136.15 887.8,-138.22 887.8,-138.22 887.8,-138.22 883.25,-136.15 885.94,-142.31 878.7,-134.07 878.7,-134.07"/>
<text text-anchor="middle" x="949.5" y="-156" font-family="Times,serif" font-size="10.00">filter</text>
<text text-anchor="middle" x="882.2" y="-137.07" font-family="Times,serif" font-size="10.00">1</text>
</g>
<!-- DemoDM:catalog.SDSSSource -->
<g id="node20" class="node">
<title>DemoDM:catalog.SDSSSource</title>
<g id="a_node20"><a xlink:href="../DemoDM/catalog.SDSSSource" xlink:title="{catalog/SDSSSource}">
<polygon fill="#ffffb3" stroke="black" points="760,-422 760,-458 858,-458 858,-422 760,-422"/>
<text text-anchor="middle" x="809" y="-438.1" font-family="Times,serif" font-size="8.00">catalog/SDSSSource</text>
</a>
</g>
</g>
<!-- DemoDM:catalog.SDSSSource&#45;&gt;DemoDM:catalog.AbstractSource -->
<g id="edge7" class="edge">
<title>DemoDM:catalog.SDSSSource&#45;&gt;DemoDM:catalog.AbstractSource</title>
<path fill="none" stroke="red" d="M827.95,-421.82C843.6,-407.63 866.48,-386.9 886.79,-368.48"/>
<polygon fill="none" stroke="red" points="889.37,-370.87 894.43,-361.56 884.67,-365.68 889.37,-370.87"/>
</g>
<!-- DemoDM:catalog.Source -->
<g id="node22" class="node">
<title>DemoDM:catalog.Source</title>
<g id="a_node22"><a xlink:href="../DemoDM/catalog.Source" xlink:title="{catalog/Source}">
<polygon fill="#ffffb3" stroke="black" points="876,-422 876,-458 952,-458 952,-422 876,-422"/>
<text text-anchor="middle" x="914" y="-438.1" font-family="Times,serif" font-size="8.00">catalog/Source</text>
</a>
</g>
</g>
<!-- DemoDM:catalog.Source&#45;&gt;DemoDM:catalog.AbstractSource -->
<g id="edge8" class="edge">
<title>DemoDM:catalog.Source&#45;&gt;DemoDM:catalog.AbstractSource</title>
<path fill="none" stroke="red" d="M916.81,-421.58C918.96,-408.27 922.02,-389.3 924.83,-371.89"/>
<polygon fill="none" stroke="red" points="928.31,-372.29 926.45,-361.86 921.4,-371.18 928.31,-372.29"/>
</g>
<!-- DemoDM:catalog.TwoMassSource -->
<g id="node23" class="node">
<title>DemoDM:catalog.TwoMassSource</title>
<g id="a_node23"><a xlink:href="../DemoDM/catalog.TwoMassSource" xlink:title="{catalog/TwoMassSource}">
<polygon fill="#ffffb3" stroke="black" points="970.5,-422 970.5,-458 1083.5,-458 1083.5,-422 970.5,-422"/>
<text text-anchor="middle" x="1027" y="-438.1" font-family="Times,serif" font-size="8.00">catalog/TwoMassSource</text>
</a>
</g>
</g>
<!-- DemoDM:catalog.TwoMassSource&#45;&gt;DemoDM:catalog.AbstractSource -->
<g id="edge9" class="edge">
<title>DemoDM:catalog.TwoMassSource&#45;&gt;DemoDM:catalog.AbstractSource</title>
<path fill="none" stroke="red" d="M1012.16,-421.58C1000.39,-407.77 983.44,-387.88 968.16,-369.94"/>
<polygon fill="none" stroke="red" points="970.43,-367.21 961.28,-361.86 965.1,-371.75 970.43,-367.21"/>
</g>
<!-- DemoDM:catalog.inner.Testing -->
<g id="node24" class="node">
<title>DemoDM:catalog.inner.Testing</title>
<g id="a_node24"><a xlink:href="../DemoDM/catalog.inner.Testing" xlink:title="{catalog/inner/Testing|+plain : ivoa:string\l+unbounded : ivoa:string\l+apoint : DemoDM:Point\l+acircle : DemoDM:Circle\l+apoly : DemoDM:Polygon\l}">
<polygon fill="#bebada" stroke="black" points="1109.5,-291.5 1109.5,-361.5 1234.5,-361.5 1234.5,-291.5 1109.5,-291.5"/>
<text text-anchor="middle" x="1172" y="-351.1" font-family="Times,serif" font-size="8.00">catalog/inner/Testing</text>
<polyline fill="none" stroke="black" points="1109.5,-344.5 1234.5,-344.5 "/>
<text text-anchor="start" x="1117.5" y="-334.1" font-family="Times,serif" font-size="8.00">+plain : ivoa:string</text>
<text text-anchor="start" x="1117.5" y="-325.1" font-family="Times,serif" font-size="8.00">+unbounded : ivoa:string</text>
<text text-anchor="start" x="1117.5" y="-316.1" font-family="Times,serif" font-size="8.00">+apoint : DemoDM:Point</text>
<text text-anchor="start" x="1117.5" y="-307.1" font-family="Times,serif" font-size="8.00">+acircle : DemoDM:Circle</text>
<text text-anchor="start" x="1117.5" y="-298.1" font-family="Times,serif" font-size="8.00">+apoly : DemoDM:Polygon</text>
</a>
</g>
</g>
<!-- DemoDM:catalog.inner.SourceCatalogue -->
<g id="node25" class="node">
<title>DemoDM:catalog.inner.SourceCatalogue</title>
<g id="a_node25"><a xlink:href="../DemoDM/catalog.inner.SourceCatalogue" xlink:title="{catalog/inner/SourceCatalogue|+name : ivoa:string\l}">
<polygon fill="#bebada" stroke="black" points="1102,-422 1102,-458 1242,-458 1242,-422 1102,-422"/>
<text text-anchor="middle" x="1172" y="-447.1" font-family="Times,serif" font-size="8.00">catalog/inner/SourceCatalogue</text>
<polyline fill="none" stroke="black" points="1102,-440 1242,-440 "/>
<text text-anchor="start" x="1110" y="-429.1" font-family="Times,serif" font-size="8.00">+name : ivoa:string</text>
</a>
</g>
</g>
<!-- DemoDM:catalog.inner.SourceCatalogue&#45;&gt;DemoDM:catalog.AbstractSource -->
<g id="edge12" class="edge">
<title>DemoDM:catalog.inner.SourceCatalogue&#45;&gt;DemoDM:catalog.AbstractSource</title>
<path fill="none" stroke="blue" d="M1124.28,-416.83C1092.98,-402.29 1051.24,-382.9 1014.65,-365.9"/>
<polygon fill="blue" stroke="blue" points="1124.41,-416.89 1131.53,-415.79 1135.29,-421.94 1128.16,-423.04 1124.41,-416.89"/>
<polygon fill="blue" stroke="blue" points="1005.46,-361.63 1016.43,-361.76 1010,-363.74 1014.53,-365.84 1014.53,-365.84 1014.53,-365.84 1010,-363.74 1012.64,-369.92 1005.46,-361.63 1005.46,-361.63"/>
<text text-anchor="middle" x="1080" y="-383" font-family="Times,serif" font-size="10.00">entry</text>
<text text-anchor="middle" x="996.46" y="-364.63" font-family="Times,serif" font-size="10.00">0..*</text>
</g>
<!-- DemoDM:catalog.inner.SourceCatalogue&#45;&gt;DemoDM:catalog.inner.Testing -->
<g id="edge13" class="edge">
<title>DemoDM:catalog.inner.SourceCatalogue&#45;&gt;DemoDM:catalog.inner.Testing</title>
<path fill="none" stroke="blue" d="M1154.53,-410.89C1151.42,-404.57 1148.65,-397.73 1147,-391 1145.43,-384.58 1145.73,-377.94 1147.16,-371.49"/>
<polygon fill="blue" stroke="blue" points="1154.61,-411.03 1160.99,-414.4 1160.34,-421.58 1153.96,-418.22 1154.61,-411.03"/>
<polygon fill="blue" stroke="blue" points="1150.23,-361.55 1151.58,-372.44 1148.76,-366.33 1147.28,-371.11 1147.28,-371.11 1147.28,-371.11 1148.76,-366.33 1142.98,-369.78 1150.23,-361.55 1150.23,-361.55"/>
<text text-anchor="middle" x="1161" y="-383" font-family="Times,serif" font-size="10.00">aTest</text>
<text text-anchor="middle" x="1140.73" y="-364.55" font-family="Times,serif" font-size="10.00">0..1</text>
</g>
<!-- DemoDM:catalog.inner.SourceCatalogue&#45;&gt;DemoDM:catalog.inner.Testing -->
<g id="edge14" class="edge">
<title>DemoDM:catalog.inner.SourceCatalogue&#45;&gt;DemoDM:catalog.inner.Testing</title>
<path fill="none" stroke="blue" d="M1174.12,-409.68C1174.49,-403.51 1174.81,-397.05 1175,-391 1175.19,-384.92 1175.16,-378.52 1174.99,-372.21"/>
<polygon fill="blue" stroke="blue" points="1174.12,-409.71 1177.72,-415.95 1173.34,-421.68 1169.74,-415.44 1174.12,-409.71"/>
<polygon fill="blue" stroke="blue" points="1174.6,-361.77 1179.47,-371.59 1174.79,-366.76 1174.98,-371.76 1174.98,-371.76 1174.98,-371.76 1174.79,-366.76 1170.48,-371.93 1174.6,-361.77 1174.6,-361.77"/>
<text text-anchor="middle" x="1202.5" y="-383" font-family="Times,serif" font-size="10.00">aTestMore</text>
<text text-anchor="middle" x="1165.6" y="-364.77" font-family="Times,serif" font-size="10.00">0..*</text>
</g>
</g>
</svg>
