<?xml version="1.0" encoding="UTF-8" standalone="no"?>
<!DOCTYPE svg PUBLIC "-//W3C//DTD SVG 1.1//EN"
 "http://www.w3.org/Graphics/SVG/1.1/DTD/svg11.dtd">
<!-- Generated by graphviz version 2.43.0 (0)
 -->
<!-- Title: GVmap Pages: 1 -->
<svg width="1527pt" height="536pt"
 viewBox="0.00 0.00 1526.50 536.00" xmlns="http://www.w3.org/2000/svg" xmlns:xlink="http://www.w3.org/1999/xlink">
<g id="graph0" class="graph" transform="scale(1 1) rotate(0) translate(4 532)">
<title>GVmap</title>
<polygon fill="white" stroke="transparent" points="-4,4 -4,-532 1522.5,-532 1522.5,4 -4,4"/>
<text text-anchor="middle" x="759.25" y="-7.8" font-family="Times,serif" font-size="14.00">DemoDM data model</text>
<g id="clust1" class="cluster">
<title>cluster_packages</title>
<polygon fill="#8dd3c7" stroke="black" points="8,-406 8,-520 236,-520 236,-406 8,-406"/>
<text text-anchor="middle" x="122" y="-504.8" font-family="Times,serif" font-size="14.00">Model</text>
</g>
<g id="clust2" class="cluster">
<title>cluster_catalog</title>
<polygon fill="#ffffb3" stroke="black" points="92,-414 92,-489 228,-489 228,-414 92,-414"/>
<text text-anchor="middle" x="160" y="-473.8" font-family="Times,serif" font-size="14.00">Package: catalog</text>
</g>
<!-- catalog -->
<g id="node1" class="node">
<title>catalog</title>
<g id="a_node1"><a xlink:href="../DemoDM/catalog" xlink:title="catalog">
<polygon fill="#ffffb3" stroke="black" points="84,-458 28,-458 28,-462 16,-462 16,-422 84,-422 84,-458"/>
<polyline fill="none" stroke="black" points="16,-458 28,-458 "/>
<text text-anchor="middle" x="50" y="-436.3" font-family="Times,serif" font-size="14.00">catalog</text>
</a>
</g>
</g>
<!-- catalog.inner -->
<g id="node2" class="node">
<title>catalog.inner</title>
<g id="a_node2"><a xlink:href="../DemoDM/catalog.inner" xlink:title="inner">
<polygon fill="#bebada" stroke="black" points="188,-458 146,-458 146,-462 134,-462 134,-422 188,-422 188,-458"/>
<polyline fill="none" stroke="black" points="134,-458 146,-458 "/>
<text text-anchor="middle" x="161" y="-436.3" font-family="Times,serif" font-size="14.00">inner</text>
</a>
</g>
</g>
<!-- DemoDM:PhotometricSystem -->
<g id="node3" class="node">
<title>DemoDM:PhotometricSystem</title>
<g id="a_node3"><a xlink:href="../DemoDM/PhotometricSystem" xlink:title="{PhotometricSystem|+description : ivoa:string\l+detectorType : ivoa:integer\l}">
<polygon fill="#8dd3c7" stroke="black" points="219.5,-191.5 219.5,-234.5 350.5,-234.5 350.5,-191.5 219.5,-191.5"/>
<text text-anchor="middle" x="285" y="-224.1" font-family="Times,serif" font-size="8.00">PhotometricSystem</text>
<polyline fill="none" stroke="black" points="219.5,-217.5 350.5,-217.5 "/>
<text text-anchor="start" x="227.5" y="-207.1" font-family="Times,serif" font-size="8.00">+description : ivoa:string</text>
<text text-anchor="start" x="227.5" y="-198.1" font-family="Times,serif" font-size="8.00">+detectorType : ivoa:integer</text>
</a>
</g>
</g>
<!-- DemoDM:PhotometryFilter -->
<g id="node4" class="node">
<title>DemoDM:PhotometryFilter</title>
<g id="a_node4"><a xlink:href="../DemoDM/PhotometryFilter" xlink:title="{PhotometryFilter|+name : ivoa:string\l+description : ivoa:string\l+bandName : ivoa:string\l+dataValidityFrom : ivoa:datetime\l+dataValidityTo : ivoa:datetime\l+spectralLocation : ivoa:RealQuantity\l}">
<polygon fill="#8dd3c7" stroke="black" points="256.5,-55.5 256.5,-134.5 423.5,-134.5 423.5,-55.5 256.5,-55.5"/>
<text text-anchor="middle" x="340" y="-124.1" font-family="Times,serif" font-size="8.00">PhotometryFilter</text>
<polyline fill="none" stroke="black" points="256.5,-117.5 423.5,-117.5 "/>
<text text-anchor="start" x="264.5" y="-107.1" font-family="Times,serif" font-size="8.00">+name : ivoa:string</text>
<text text-anchor="start" x="264.5" y="-98.1" font-family="Times,serif" font-size="8.00">+description : ivoa:string</text>
<text text-anchor="start" x="264.5" y="-89.1" font-family="Times,serif" font-size="8.00">+bandName : ivoa:string</text>
<text text-anchor="start" x="264.5" y="-80.1" font-family="Times,serif" font-size="8.00">+dataValidityFrom : ivoa:datetime</text>
<text text-anchor="start" x="264.5" y="-71.1" font-family="Times,serif" font-size="8.00">+dataValidityTo : ivoa:datetime</text>
<text text-anchor="start" x="264.5" y="-62.1" font-family="Times,serif" font-size="8.00">+spectralLocation : ivoa:RealQuantity</text>
</a>
</g>
</g>
<!-- DemoDM:PhotometricSystem&#45;&gt;DemoDM:PhotometryFilter -->
<g id="edge8" class="edge">
<title>DemoDM:PhotometricSystem&#45;&gt;DemoDM:PhotometryFilter</title>
<path fill="none" stroke="blue" d="M300.08,-180.2C305.37,-169.03 311.45,-156.22 317.23,-144.02"/>
<polygon fill="blue" stroke="blue" points="299.97,-180.42 301.02,-187.55 294.83,-191.26 293.79,-184.13 299.97,-180.42"/>
<polygon fill="blue" stroke="blue" points="321.58,-134.85 321.36,-145.81 319.44,-139.37 317.3,-143.88 317.3,-143.88 317.3,-143.88 319.44,-139.37 313.23,-141.96 321.58,-134.85 321.58,-134.85"/>
<text text-anchor="middle" x="356.5" y="-156" font-family="Times,serif" font-size="10.00">photometryFilter</text>
<text text-anchor="middle" x="312.58" y="-137.85" font-family="Times,serif" font-size="10.00">1..*</text>
</g>
<!-- DemoDM:catalog.LuminosityType -->
<g id="node5" class="node">
<title>DemoDM:catalog.LuminosityType</title>
<g id="a_node5"><a xlink:href="../DemoDM/catalog.LuminosityType" xlink:title="{&amp;lt;&amp;lt;enumeration&amp;gt;&amp;gt;\ncatalog/LuminosityType|+magnitude\l+flux\l}">
<polygon fill="#ffffb3" stroke="black" points="744.5,-414 744.5,-466 855.5,-466 855.5,-414 744.5,-414"/>
<text text-anchor="middle" x="800" y="-455.6" font-family="Times,serif" font-size="8.00">&lt;&lt;enumeration&gt;&gt;</text>
<text text-anchor="middle" x="800" y="-446.6" font-family="Times,serif" font-size="8.00">catalog/LuminosityType</text>
<polyline fill="none" stroke="black" points="744.5,-440 855.5,-440 "/>
<text text-anchor="start" x="752.5" y="-429.6" font-family="Times,serif" font-size="8.00">+magnitude</text>
<text text-anchor="start" x="752.5" y="-420.6" font-family="Times,serif" font-size="8.00">+flux</text>
</a>
</g>
</g>
<!-- DemoDM:catalog.SourceClassification -->
<g id="node6" class="node">
<title>DemoDM:catalog.SourceClassification</title>
<g id="a_node6"><a xlink:href="../DemoDM/catalog.SourceClassification" xlink:title="{&amp;lt;&amp;lt;enumeration&amp;gt;&amp;gt;\ncatalog/SourceClassification|+target\l+calibrator\l}">
<polygon fill="#ffffb3" stroke="black" points="874,-414 874,-466 1002,-466 1002,-414 874,-414"/>
<text text-anchor="middle" x="938" y="-455.6" font-family="Times,serif" font-size="8.00">&lt;&lt;enumeration&gt;&gt;</text>
<text text-anchor="middle" x="938" y="-446.6" font-family="Times,serif" font-size="8.00">catalog/SourceClassification</text>
<polyline fill="none" stroke="black" points="874,-440 1002,-440 "/>
<text text-anchor="start" x="882" y="-429.6" font-family="Times,serif" font-size="8.00">+target</text>
<text text-anchor="start" x="882" y="-420.6" font-family="Times,serif" font-size="8.00">+calibrator</text>
</a>
</g>
</g>
<!-- DemoDM:catalog.AlignedEllipse -->
<g id="node7" class="node">
<title>DemoDM:catalog.AlignedEllipse</title>
<g id="a_node7"><a xlink:href="../DemoDM/catalog.AlignedEllipse" xlink:title="{&amp;lt;&amp;lt;datatype&amp;gt;&amp;gt;\ncatalog/AlignedEllipse|+longError : ivoa:real\l+latError : ivoa:real\l}">
<polygon fill="#ffffb3" stroke="black" points="1020.5,-414 1020.5,-466 1125.5,-466 1125.5,-414 1020.5,-414"/>
<text text-anchor="middle" x="1073" y="-455.6" font-family="Times,serif" font-size="8.00">&lt;&lt;datatype&gt;&gt;</text>
<text text-anchor="middle" x="1073" y="-446.6" font-family="Times,serif" font-size="8.00">catalog/AlignedEllipse</text>
<polyline fill="none" stroke="black" points="1020.5,-440 1125.5,-440 "/>
<text text-anchor="start" x="1028.5" y="-429.6" font-family="Times,serif" font-size="8.00">+longError : ivoa:real</text>
<text text-anchor="start" x="1028.5" y="-420.6" font-family="Times,serif" font-size="8.00">+latError : ivoa:real</text>
</a>
</g>
</g>
<!-- DemoDM:catalog.SkyError -->
<g id="node11" class="node">
<title>DemoDM:catalog.SkyError</title>
<g id="a_node11"><a xlink:href="../DemoDM/catalog.SkyError" xlink:title="{&amp;lt;&amp;lt;datatype&amp;gt;&amp;gt;\ncatalog/SkyError}">
<polygon fill="#ffffb3" stroke="black" points="1148,-308.5 1148,-344.5 1232,-344.5 1232,-308.5 1148,-308.5"/>
<text text-anchor="middle" x="1190" y="-329.1" font-family="Times,serif" font-size="8.00">&lt;&lt;datatype&gt;&gt;</text>
<text text-anchor="middle" x="1190" y="-320.1" font-family="Times,serif" font-size="8.00">catalog/SkyError</text>
</a>
</g>
</g>
<!-- DemoDM:catalog.AlignedEllipse&#45;&gt;DemoDM:catalog.SkyError -->
<g id="edge1" class="edge">
<title>DemoDM:catalog.AlignedEllipse&#45;&gt;DemoDM:catalog.SkyError</title>
<path fill="none" stroke="red" d="M1099.26,-413.98C1118.77,-395.39 1145.23,-370.16 1164.55,-351.76"/>
<polygon fill="none" stroke="red" points="1167,-354.25 1171.83,-344.82 1162.17,-349.18 1167,-354.25"/>
</g>
<!-- DemoDM:catalog.CircleError -->
<g id="node8" class="node">
<title>DemoDM:catalog.CircleError</title>
<g id="a_node8"><a xlink:href="../DemoDM/catalog.CircleError" xlink:title="{&amp;lt;&amp;lt;datatype&amp;gt;&amp;gt;\ncatalog/CircleError|+radius : ivoa:real\l}">
<polygon fill="#ffffb3" stroke="black" points="1143.5,-418.5 1143.5,-461.5 1236.5,-461.5 1236.5,-418.5 1143.5,-418.5"/>
<text text-anchor="middle" x="1190" y="-451.1" font-family="Times,serif" font-size="8.00">&lt;&lt;datatype&gt;&gt;</text>
<text text-anchor="middle" x="1190" y="-442.1" font-family="Times,serif" font-size="8.00">catalog/CircleError</text>
<polyline fill="none" stroke="black" points="1143.5,-435.5 1236.5,-435.5 "/>
<text text-anchor="start" x="1151.5" y="-425.1" font-family="Times,serif" font-size="8.00">+radius : ivoa:real</text>
</a>
</g>
</g>
<!-- DemoDM:catalog.CircleError&#45;&gt;DemoDM:catalog.SkyError -->
<g id="edge2" class="edge">
<title>DemoDM:catalog.CircleError&#45;&gt;DemoDM:catalog.SkyError</title>
<path fill="none" stroke="red" d="M1190,-418.29C1190,-400.43 1190,-374.52 1190,-354.94"/>
<polygon fill="none" stroke="red" points="1193.5,-354.81 1190,-344.81 1186.5,-354.81 1193.5,-354.81"/>
</g>
<!-- DemoDM:catalog.GenericEllipse -->
<g id="node9" class="node">
<title>DemoDM:catalog.GenericEllipse</title>
<g id="a_node9"><a xlink:href="../DemoDM/catalog.GenericEllipse" xlink:title="{&amp;lt;&amp;lt;datatype&amp;gt;&amp;gt;\ncatalog/GenericEllipse|+major : ivoa:real\l+minor : ivoa:real\l+pa : ivoa:real\l}">
<polygon fill="#ffffb3" stroke="black" points="1255,-409.5 1255,-470.5 1361,-470.5 1361,-409.5 1255,-409.5"/>
<text text-anchor="middle" x="1308" y="-460.1" font-family="Times,serif" font-size="8.00">&lt;&lt;datatype&gt;&gt;</text>
<text text-anchor="middle" x="1308" y="-451.1" font-family="Times,serif" font-size="8.00">catalog/GenericEllipse</text>
<polyline fill="none" stroke="black" points="1255,-444.5 1361,-444.5 "/>
<text text-anchor="start" x="1263" y="-434.1" font-family="Times,serif" font-size="8.00">+major : ivoa:real</text>
<text text-anchor="start" x="1263" y="-425.1" font-family="Times,serif" font-size="8.00">+minor : ivoa:real</text>
<text text-anchor="start" x="1263" y="-416.1" font-family="Times,serif" font-size="8.00">+pa : ivoa:real</text>
</a>
</g>
</g>
<!-- DemoDM:catalog.GenericEllipse&#45;&gt;DemoDM:catalog.SkyError -->
<g id="edge3" class="edge">
<title>DemoDM:catalog.GenericEllipse&#45;&gt;DemoDM:catalog.SkyError</title>
<path fill="none" stroke="red" d="M1276.69,-409.41C1257.57,-391.35 1233.44,-368.54 1215.49,-351.59"/>
<polygon fill="none" stroke="red" points="1217.88,-349.03 1208.21,-344.71 1213.08,-354.12 1217.88,-349.03"/>
</g>
<!-- DemoDM:catalog.SkyCoordinate -->
<g id="node10" class="node">
<title>DemoDM:catalog.SkyCoordinate</title>
<g id="a_node10"><a xlink:href="../DemoDM/catalog.SkyCoordinate" xlink:title="{&amp;lt;&amp;lt;datatype&amp;gt;&amp;gt;\ncatalog/SkyCoordinate|+longitude : ivoa:RealQuantity\l+latitude : ivoa:RealQuantity\l}">
<polygon fill="#ffffb3" stroke="black" points="1379.5,-414 1379.5,-466 1518.5,-466 1518.5,-414 1379.5,-414"/>
<text text-anchor="middle" x="1449" y="-455.6" font-family="Times,serif" font-size="8.00">&lt;&lt;datatype&gt;&gt;</text>
<text text-anchor="middle" x="1449" y="-446.6" font-family="Times,serif" font-size="8.00">catalog/SkyCoordinate</text>
<polyline fill="none" stroke="black" points="1379.5,-440 1518.5,-440 "/>
<text text-anchor="start" x="1387.5" y="-429.6" font-family="Times,serif" font-size="8.00">+longitude : ivoa:RealQuantity</text>
<text text-anchor="start" x="1387.5" y="-420.6" font-family="Times,serif" font-size="8.00">+latitude : ivoa:RealQuantity</text>
</a>
</g>
</g>
<!-- DemoDM:catalog.SkyCoordinateFrame -->
<g id="node16" class="node">
<title>DemoDM:catalog.SkyCoordinateFrame</title>
<g id="a_node16"><a xlink:href="../DemoDM/catalog.SkyCoordinateFrame" xlink:title="{catalog/SkyCoordinateFrame|+name : ivoa:string\l+documentURI : ivoa:anyURI\l+equinox : ivoa:string\l+system : ivoa:string\l}">
<polygon fill="#ffffb3" stroke="black" points="1381.5,-296 1381.5,-357 1516.5,-357 1516.5,-296 1381.5,-296"/>
<text text-anchor="middle" x="1449" y="-346.6" font-family="Times,serif" font-size="8.00">catalog/SkyCoordinateFrame</text>
<polyline fill="none" stroke="black" points="1381.5,-340 1516.5,-340 "/>
<text text-anchor="start" x="1389.5" y="-329.6" font-family="Times,serif" font-size="8.00">+name : ivoa:string</text>
<text text-anchor="start" x="1389.5" y="-320.6" font-family="Times,serif" font-size="8.00">+documentURI : ivoa:anyURI</text>
<text text-anchor="start" x="1389.5" y="-311.6" font-family="Times,serif" font-size="8.00">+equinox : ivoa:string</text>
<text text-anchor="start" x="1389.5" y="-302.6" font-family="Times,serif" font-size="8.00">+system : ivoa:string</text>
</a>
</g>
</g>
<!-- DemoDM:catalog.SkyCoordinate&#45;&gt;DemoDM:catalog.SkyCoordinateFrame -->
<g id="edge13" class="edge">
<title>DemoDM:catalog.SkyCoordinate&#45;&gt;DemoDM:catalog.SkyCoordinateFrame</title>
<path fill="none" stroke="green" d="M1449,-413.98C1449,-400.31 1449,-383.06 1449,-367.57"/>
<polygon fill="green" stroke="green" points="1449,-357.19 1453.5,-367.19 1449,-362.19 1449,-367.19 1449,-367.19 1449,-367.19 1449,-362.19 1444.5,-367.19 1449,-357.19 1449,-357.19"/>
<text text-anchor="middle" x="1464.5" y="-383" font-family="Times,serif" font-size="10.00">frame</text>
<text text-anchor="middle" x="1445.5" y="-360.19" font-family="Times,serif" font-size="10.00">1</text>
</g>
<!-- DemoDM:catalog.AbstractSource -->
<g id="node12" class="node">
<title>DemoDM:catalog.AbstractSource</title>
<g id="a_node12"><a xlink:href="../DemoDM/catalog.AbstractSource" xlink:title="{catalog/AbstractSource|+name : ivoa:string\l+description : ivoa:string\l+position : DemoDM:catalog.SkyCoordinate\l+positionError : DemoDM:catalog.SkyError\l+classification : DemoDM:catalog.SourceClassification\l}">
<polygon fill="#ffffb3" stroke="black" points="326.5,-291.5 326.5,-361.5 559.5,-361.5 559.5,-291.5 326.5,-291.5"/>
<text text-anchor="middle" x="443" y="-351.1" font-family="Times,serif" font-size="8.00">catalog/AbstractSource</text>
<polyline fill="none" stroke="black" points="326.5,-344.5 559.5,-344.5 "/>
<text text-anchor="start" x="334.5" y="-334.1" font-family="Times,serif" font-size="8.00">+name : ivoa:string</text>
<text text-anchor="start" x="334.5" y="-325.1" font-family="Times,serif" font-size="8.00">+description : ivoa:string</text>
<text text-anchor="start" x="334.5" y="-316.1" font-family="Times,serif" font-size="8.00">+position : DemoDM:catalog.SkyCoordinate</text>
<text text-anchor="start" x="334.5" y="-307.1" font-family="Times,serif" font-size="8.00">+positionError : DemoDM:catalog.SkyError</text>
<text text-anchor="start" x="334.5" y="-298.1" font-family="Times,serif" font-size="8.00">+classification : DemoDM:catalog.SourceClassification</text>
</a>
</g>
</g>
<!-- DemoDM:catalog.AstroObject -->
<g id="node13" class="node">
<title>DemoDM:catalog.AstroObject</title>
<g id="a_node13"><a xlink:href="../DemoDM/catalog.AstroObject" xlink:title="{catalog/AstroObject|+objectType : ivoa:string\l}">
<polygon fill="#ffffb3" stroke="black" points="369,-195 369,-231 485,-231 485,-195 369,-195"/>
<text text-anchor="middle" x="427" y="-220.1" font-family="Times,serif" font-size="8.00">catalog/AstroObject</text>
<polyline fill="none" stroke="black" points="369,-213 485,-213 "/>
<text text-anchor="start" x="377" y="-202.1" font-family="Times,serif" font-size="8.00">+objectType : ivoa:string</text>
</a>
</g>
</g>
<!-- DemoDM:catalog.AbstractSource&#45;&gt;DemoDM:catalog.AstroObject -->
<g id="edge4" class="edge">
<title>DemoDM:catalog.AbstractSource&#45;&gt;DemoDM:catalog.AstroObject</title>
<path fill="none" stroke="red" d="M438.11,-291.44C435.81,-275.36 433.09,-256.43 430.92,-241.31"/>
<polygon fill="none" stroke="red" points="434.33,-240.47 429.45,-231.07 427.41,-241.47 434.33,-240.47"/>
</g>
<!-- DemoDM:catalog.LuminosityMeasurement -->
<g id="node14" class="node">
<title>DemoDM:catalog.LuminosityMeasurement</title>
<g id="a_node14"><a xlink:href="../DemoDM/catalog.LuminosityMeasurement" xlink:title="{catalog/LuminosityMeasurement|+value : ivoa:RealQuantity\l+error : ivoa:RealQuantity\l+description : ivoa:string\l+type : DemoDM:catalog.LuminosityType\l}">
<polygon fill="#ffffb3" stroke="black" points="503.5,-182.5 503.5,-243.5 686.5,-243.5 686.5,-182.5 503.5,-182.5"/>
<text text-anchor="middle" x="595" y="-233.1" font-family="Times,serif" font-size="8.00">catalog/LuminosityMeasurement</text>
<polyline fill="none" stroke="black" points="503.5,-226.5 686.5,-226.5 "/>
<text text-anchor="start" x="511.5" y="-216.1" font-family="Times,serif" font-size="8.00">+value : ivoa:RealQuantity</text>
<text text-anchor="start" x="511.5" y="-207.1" font-family="Times,serif" font-size="8.00">+error : ivoa:RealQuantity</text>
<text text-anchor="start" x="511.5" y="-198.1" font-family="Times,serif" font-size="8.00">+description : ivoa:string</text>
<text text-anchor="start" x="511.5" y="-189.1" font-family="Times,serif" font-size="8.00">+type : DemoDM:catalog.LuminosityType</text>
</a>
</g>
</g>
<!-- DemoDM:catalog.AbstractSource&#45;&gt;DemoDM:catalog.LuminosityMeasurement -->
<g id="edge9" class="edge">
<title>DemoDM:catalog.AbstractSource&#45;&gt;DemoDM:catalog.LuminosityMeasurement</title>
<path fill="none" stroke="blue" d="M499.18,-284.29C514.75,-272.87 531.5,-260.58 546.58,-249.52"/>
<polygon fill="blue" stroke="blue" points="499.11,-284.34 496.63,-291.12 489.43,-291.44 491.9,-284.67 499.11,-284.34"/>
<polygon fill="blue" stroke="blue" points="554.76,-243.52 549.36,-253.06 550.73,-246.47 546.7,-249.43 546.7,-249.43 546.7,-249.43 550.73,-246.47 544.04,-245.8 554.76,-243.52 554.76,-243.52"/>
<text text-anchor="middle" x="556" y="-265" font-family="Times,serif" font-size="10.00">luminosity</text>
<text text-anchor="middle" x="545.76" y="-246.52" font-family="Times,serif" font-size="10.00">0..*</text>
</g>
<!-- DemoDM:catalog.LuminosityMeasurement&#45;&gt;DemoDM:PhotometryFilter -->
<g id="edge14" class="edge">
<title>DemoDM:catalog.LuminosityMeasurement&#45;&gt;DemoDM:PhotometryFilter</title>
<path fill="none" stroke="green" d="M529.99,-182.43C500.58,-169.05 465.27,-152.99 433.12,-138.36"/>
<polygon fill="green" stroke="green" points="423.7,-134.07 434.67,-134.12 428.25,-136.15 432.8,-138.22 432.8,-138.22 432.8,-138.22 428.25,-136.15 430.94,-142.31 423.7,-134.07 423.7,-134.07"/>
<text text-anchor="middle" x="495.5" y="-156" font-family="Times,serif" font-size="10.00">filter</text>
<text text-anchor="middle" x="427.2" y="-137.07" font-family="Times,serif" font-size="10.00">1</text>
</g>
<!-- DemoDM:catalog.SDSSSource -->
<g id="node15" class="node">
<title>DemoDM:catalog.SDSSSource</title>
<g id="a_node15"><a xlink:href="../DemoDM/catalog.SDSSSource" xlink:title="{catalog/SDSSSource}">
<polygon fill="#ffffb3" stroke="black" points="244,-422 244,-458 342,-458 342,-422 244,-422"/>
<text text-anchor="middle" x="293" y="-438.1" font-family="Times,serif" font-size="8.00">catalog/SDSSSource</text>
</a>
</g>
</g>
<!-- DemoDM:catalog.SDSSSource&#45;&gt;DemoDM:catalog.AbstractSource -->
<g id="edge5" class="edge">
<title>DemoDM:catalog.SDSSSource&#45;&gt;DemoDM:catalog.AbstractSource</title>
<path fill="none" stroke="red" d="M316.11,-421.82C335.45,-407.44 363.83,-386.35 388.85,-367.75"/>
<polygon fill="none" stroke="red" points="391.25,-370.33 397.18,-361.56 387.07,-364.71 391.25,-370.33"/>
</g>
<!-- DemoDM:catalog.Source -->
<g id="node17" class="node">
<title>DemoDM:catalog.Source</title>
<g id="a_node17"><a xlink:href="../DemoDM/catalog.Source" xlink:title="{catalog/Source}">
<polygon fill="#ffffb3" stroke="black" points="360,-422 360,-458 436,-458 436,-422 360,-422"/>
<text text-anchor="middle" x="398" y="-438.1" font-family="Times,serif" font-size="8.00">catalog/Source</text>
</a>
</g>
</g>
<!-- DemoDM:catalog.Source&#45;&gt;DemoDM:catalog.AbstractSource -->
<g id="edge6" class="edge">
<title>DemoDM:catalog.Source&#45;&gt;DemoDM:catalog.AbstractSource</title>
<path fill="none" stroke="red" d="M405.03,-421.58C410.45,-408.14 418.2,-388.95 425.28,-371.4"/>
<polygon fill="none" stroke="red" points="428.63,-372.45 429.13,-361.86 422.14,-369.83 428.63,-372.45"/>
</g>
<!-- DemoDM:catalog.TwoMassSource -->
<g id="node18" class="node">
<title>DemoDM:catalog.TwoMassSource</title>
<g id="a_node18"><a xlink:href="../DemoDM/catalog.TwoMassSource" xlink:title="{catalog/TwoMassSource}">
<polygon fill="#ffffb3" stroke="black" points="454.5,-422 454.5,-458 567.5,-458 567.5,-422 454.5,-422"/>
<text text-anchor="middle" x="511" y="-438.1" font-family="Times,serif" font-size="8.00">catalog/TwoMassSource</text>
</a>
</g>
</g>
<!-- DemoDM:catalog.TwoMassSource&#45;&gt;DemoDM:catalog.AbstractSource -->
<g id="edge7" class="edge">
<title>DemoDM:catalog.TwoMassSource&#45;&gt;DemoDM:catalog.AbstractSource</title>
<path fill="none" stroke="red" d="M500.38,-421.58C492.03,-407.89 480.04,-388.24 469.18,-370.42"/>
<polygon fill="none" stroke="red" points="472.15,-368.58 463.96,-361.86 466.18,-372.22 472.15,-368.58"/>
</g>
<!-- DemoDM:catalog.inner.Testing -->
<g id="node19" class="node">
<title>DemoDM:catalog.inner.Testing</title>
<g id="a_node19"><a xlink:href="../DemoDM/catalog.inner.Testing" xlink:title="{catalog/inner/Testing|+plain : ivoa:string\l+unbounded : ivoa:string\l}">
<polygon fill="#bebada" stroke="black" points="596.5,-305 596.5,-348 715.5,-348 715.5,-305 596.5,-305"/>
<text text-anchor="middle" x="656" y="-337.6" font-family="Times,serif" font-size="8.00">catalog/inner/Testing</text>
<polyline fill="none" stroke="black" points="596.5,-331 715.5,-331 "/>
<text text-anchor="start" x="604.5" y="-320.6" font-family="Times,serif" font-size="8.00">+plain : ivoa:string</text>
<text text-anchor="start" x="604.5" y="-311.6" font-family="Times,serif" font-size="8.00">+unbounded : ivoa:string</text>
</a>
</g>
</g>
<!-- DemoDM:catalog.inner.SourceCatalogue -->
<g id="node20" class="node">
<title>DemoDM:catalog.inner.SourceCatalogue</title>
<g id="a_node20"><a xlink:href="../DemoDM/catalog.inner.SourceCatalogue" xlink:title="{catalog/inner/SourceCatalogue|+name : ivoa:string\l}">
<polygon fill="#bebada" stroke="black" points="586,-422 586,-458 726,-458 726,-422 586,-422"/>
<text text-anchor="middle" x="656" y="-447.1" font-family="Times,serif" font-size="8.00">catalog/inner/SourceCatalogue</text>
<polyline fill="none" stroke="black" points="586,-440 726,-440 "/>
<text text-anchor="start" x="594" y="-429.1" font-family="Times,serif" font-size="8.00">+name : ivoa:string</text>
</a>
</g>
</g>
<!-- DemoDM:catalog.inner.SourceCatalogue&#45;&gt;DemoDM:catalog.AbstractSource -->
<g id="edge10" class="edge">
<title>DemoDM:catalog.inner.SourceCatalogue&#45;&gt;DemoDM:catalog.AbstractSource</title>
<path fill="none" stroke="blue" d="M612.22,-416.08C584.89,-401.78 549,-382.99 517.31,-366.4"/>
<polygon fill="blue" stroke="blue" points="612.55,-416.26 619.72,-415.5 623.19,-421.82 616.01,-422.58 612.55,-416.26"/>
<polygon fill="blue" stroke="blue" points="508.06,-361.56 519,-362.21 512.49,-363.87 516.92,-366.19 516.92,-366.19 516.92,-366.19 512.49,-363.87 514.83,-370.18 508.06,-361.56 508.06,-361.56"/>
<text text-anchor="middle" x="577" y="-383" font-family="Times,serif" font-size="10.00">entry</text>
<text text-anchor="middle" x="499.06" y="-364.56" font-family="Times,serif" font-size="10.00">0..*</text>
</g>
<!-- DemoDM:catalog.inner.SourceCatalogue&#45;&gt;DemoDM:catalog.inner.Testing -->
<g id="edge11" class="edge">
<title>DemoDM:catalog.inner.SourceCatalogue&#45;&gt;DemoDM:catalog.inner.Testing</title>
<path fill="none" stroke="blue" d="M638.53,-410.89C635.42,-404.57 632.65,-397.73 631,-391 628.24,-379.72 631.26,-367.77 636.03,-357.32"/>
<polygon fill="blue" stroke="blue" points="638.61,-411.03 644.99,-414.4 644.34,-421.58 637.96,-418.22 638.61,-411.03"/>
<polygon fill="blue" stroke="blue" points="640.8,-348.2 640.15,-359.15 638.48,-352.63 636.16,-357.07 636.16,-357.07 636.16,-357.07 638.48,-352.63 632.18,-354.98 640.8,-348.2 640.8,-348.2"/>
<text text-anchor="middle" x="645" y="-383" font-family="Times,serif" font-size="10.00">aTest</text>
<text text-anchor="middle" x="631.3" y="-351.2" font-family="Times,serif" font-size="10.00">0..1</text>
</g>
<!-- DemoDM:catalog.inner.SourceCatalogue&#45;&gt;DemoDM:catalog.inner.Testing -->
<g id="edge12" class="edge">
<title>DemoDM:catalog.inner.SourceCatalogue&#45;&gt;DemoDM:catalog.inner.Testing</title>
<path fill="none" stroke="blue" d="M658.12,-409.68C658.49,-403.51 658.81,-397.05 659,-391 659.33,-380.36 658.99,-368.72 658.43,-358.34"/>
<polygon fill="blue" stroke="blue" points="658.12,-409.71 661.72,-415.95 657.34,-421.68 653.74,-415.44 658.12,-409.71"/>
<polygon fill="blue" stroke="blue" points="657.79,-348.08 662.9,-357.78 658.1,-353.07 658.41,-358.06 658.41,-358.06 658.41,-358.06 658.1,-353.07 653.92,-358.34 657.79,-348.08 657.79,-348.08"/>
<text text-anchor="middle" x="686.5" y="-383" font-family="Times,serif" font-size="10.00">aTestMore</text>
<text text-anchor="middle" x="666.79" y="-351.08" font-family="Times,serif" font-size="10.00">0..*</text>
</g>
</g>
</svg>
